<?xml version="1.0" encoding="utf-8"?>
<!-- Generator: Adobe Illustrator 18.0.0, SVG Export Plug-In . SVG Version: 6.00 Build 0)  -->
<!DOCTYPE svg PUBLIC "-//W3C//DTD SVG 1.1//EN" "http://www.w3.org/Graphics/SVG/1.1/DTD/svg11.dtd">
<svg version="1.1" xmlns="http://www.w3.org/2000/svg" xmlns:xlink="http://www.w3.org/1999/xlink" x="0px" y="0px" width="500px"
	 height="500px" viewBox="0 0 500 500" enable-background="new 0 0 500 500" xml:space="preserve">
<g id="Capa_1" display="none">
	<rect x="92.4" y="282.8" display="inline" fill="none" width="315.2" height="161.3"/>
	<text transform="matrix(1 0 0 1 92.3831 389.2003)" display="inline"><tspan x="0" y="0" fill="#FFFFFF" stroke="#532C64" stroke-width="5" stroke-miterlimit="10" font-family="'Lato-Thin'" font-size="125">csi</tspan><tspan x="137.9" y="0" fill="#C0DCDC" stroke="#C0DCDC" stroke-width="5" stroke-miterlimit="10" font-family="'Lato-Thin'" font-size="125">p</tspan><tspan x="206.2" y="0" fill="#C0DCDC" stroke="#C0DCDC" stroke-width="5" stroke-miterlimit="10" font-family="'Lato-Thin'" font-size="125" letter-spacing="-3">r</tspan><tspan x="245.7" y="0" fill="#C0DCDC" stroke="#C0DCDC" stroke-width="5" stroke-miterlimit="10" font-family="'Lato-Thin'" font-size="125">o</tspan></text>
</g>
<g id="Capa_2" display="none">
	<g display="inline">
		<g>
			<polyline fill="none" stroke="#532C64" stroke-width="10" stroke-miterlimit="10" points="205.3,98.1 120.3,183.1 205.3,268.1 
							"/>
			<circle fill="#532C64" stroke="#532C64" stroke-width="3" stroke-miterlimit="10" cx="205.3" cy="98.1" r="15"/>
			<circle fill="#532C64" stroke="#532C64" stroke-width="3" stroke-miterlimit="10" cx="205.3" cy="268.1" r="15"/>
			<circle fill="#532C64" stroke="#532C64" stroke-width="3" stroke-miterlimit="10" cx="120.3" cy="183.1" r="15"/>
		</g>
		<g>
			<polyline fill="none" stroke="#532C64" stroke-width="11" stroke-miterlimit="10" points="294.7,268.1 379.7,183.1 294.7,98.1 
							"/>
			<circle fill="#532C64" stroke="#532C64" stroke-width="3" stroke-miterlimit="10" cx="294.7" cy="268.1" r="15"/>
			<circle fill="#532C64" stroke="#532C64" stroke-width="3" stroke-miterlimit="10" cx="294.7" cy="98.1" r="15"/>
			<circle fill="#532C64" stroke="#532C64" stroke-width="3" stroke-miterlimit="10" cx="379.7" cy="183.1" r="15"/>
			<g>
				<polygon fill="#532C64" points="299.5,99.6 242.9,273.5 289.9,96.7 				"/>
			</g>
		</g>
	</g>
</g>
<g id="Capa_5" display="none">
	<rect y="0" display="inline" fill="#532A62" width="500" height="500"/>
</g>
<g id="Capa_3">
	<g>
		<path fill="#FFFFFF" stroke="#FFFFFF" stroke-width="7" stroke-miterlimit="10" d="M127.4,358.1c-0.1,0.1-0.3,0.3-0.4,0.4
			c-0.1,0.1-0.3,0.2-0.6,0.2c-0.4,0-1-0.3-1.8-1c-0.8-0.7-1.9-1.4-3.3-2.2c-1.4-0.8-3.2-1.5-5.3-2.2c-2.1-0.7-4.7-1-7.8-1
			c-4.3,0-8.1,0.8-11.4,2.3c-3.3,1.5-6.2,3.7-8.5,6.5c-2.3,2.8-4.1,6.3-5.3,10.3c-1.2,4-1.8,8.5-1.8,13.6c0,5.2,0.6,9.8,1.9,13.8
			c1.2,4,3,7.4,5.3,10.2c2.3,2.8,5,4.9,8.2,6.3c3.2,1.4,6.8,2.2,10.7,2.2c3.5,0,6.5-0.4,8.9-1.2c2.4-0.8,4.4-1.7,6-2.7
			c1.6-1,2.8-1.9,3.6-2.7c0.8-0.8,1.4-1.2,1.8-1.2c0.4,0,0.7,0.1,0.9,0.4l0.8,1c-0.8,1.2-2,2.3-3.5,3.4c-1.5,1.1-3.2,2.1-5.1,3
			c-1.9,0.9-4.1,1.6-6.4,2.1c-2.4,0.5-4.9,0.8-7.5,0.8c-4.4,0-8.4-0.8-12-2.4c-3.6-1.6-6.7-3.9-9.2-6.9c-2.5-3-4.5-6.7-5.9-11.1
			s-2.1-9.4-2.1-14.9c0-5.3,0.7-10.2,2.1-14.6c1.4-4.4,3.4-8.1,6-11.2c2.6-3.1,5.8-5.5,9.6-7.2c3.8-1.7,8.1-2.6,13-2.6
			c4.3,0,8.1,0.7,11.5,2.1c3.4,1.4,6.3,3.2,8.7,5.4L127.4,358.1z"/>
		<path fill="#FFFFFF" stroke="#FFFFFF" stroke-width="7" stroke-miterlimit="10" d="M184.1,357.6c-0.2,0.4-0.6,0.6-1,0.6
			c-0.4,0-1-0.3-1.8-0.9s-1.8-1.3-3.2-2c-1.4-0.7-3-1.4-5.1-2c-2-0.6-4.5-0.9-7.5-0.9c-2.8,0-5.3,0.4-7.5,1.2
			c-2.3,0.8-4.2,1.9-5.8,3.3c-1.6,1.4-2.9,2.9-3.8,4.8c-0.9,1.8-1.3,3.7-1.3,5.7c0,2.3,0.6,4.3,1.7,5.9c1.1,1.6,2.6,2.9,4.5,4
			c1.9,1.1,4,2,6.4,2.8c2.4,0.8,4.8,1.5,7.3,2.3c2.5,0.8,4.9,1.6,7.3,2.5c2.4,0.9,4.5,2,6.4,3.3c1.9,1.3,3.4,2.9,4.5,4.8
			c1.1,1.9,1.7,4.3,1.7,7.1c0,2.9-0.5,5.6-1.5,8.1c-1,2.5-2.5,4.7-4.5,6.6c-2,1.9-4.4,3.4-7.3,4.4c-2.9,1.1-6.1,1.6-9.8,1.6
			c-2.5,0-4.7-0.2-6.7-0.6c-2-0.4-3.9-1-5.6-1.7c-1.7-0.7-3.3-1.6-4.8-2.6c-1.5-1-2.9-2.2-4.3-3.4l0.9-1.2c0.2-0.2,0.4-0.4,0.5-0.5
			c0.2-0.1,0.4-0.2,0.8-0.2c0.5,0,1.1,0.4,2,1.2c0.9,0.8,2,1.6,3.5,2.6c1.5,0.9,3.3,1.8,5.6,2.6c2.2,0.8,5,1.2,8.3,1.2
			c3.2,0,6.1-0.5,8.5-1.4c2.5-0.9,4.5-2.2,6.2-3.7c1.7-1.6,2.9-3.4,3.7-5.6c0.8-2.1,1.3-4.4,1.3-6.8c0-2.5-0.6-4.6-1.7-6.3
			c-1.1-1.7-2.6-3.1-4.5-4.2c-1.9-1.1-4-2.1-6.4-2.9c-2.4-0.8-4.8-1.6-7.3-2.3c-2.5-0.7-4.9-1.6-7.3-2.4c-2.4-0.9-4.5-1.9-6.4-3.2
			c-1.9-1.3-3.4-2.9-4.5-4.7c-1.1-1.9-1.7-4.2-1.7-7c0-2.3,0.5-4.6,1.6-6.8c1.1-2.2,2.5-4.1,4.4-5.7c1.9-1.7,4.2-3,6.9-4
			c2.7-1,5.7-1.5,9-1.5c4,0,7.6,0.6,10.6,1.7s6,2.9,8.8,5.3L184.1,357.6z"/>
		<path fill="#FFFFFF" stroke="#FFFFFF" stroke-width="7" stroke-miterlimit="10" d="M213.8,325.6c0,0.7-0.1,1.3-0.4,1.8
			c-0.3,0.6-0.6,1.1-1.1,1.5c-0.4,0.4-1,0.8-1.5,1c-0.6,0.3-1.2,0.4-1.8,0.4c-1.3,0-2.4-0.5-3.4-1.4c-1-1-1.4-2.1-1.4-3.3
			c0-1.3,0.5-2.4,1.4-3.4c1-1,2.1-1.4,3.4-1.4c0.6,0,1.2,0.1,1.8,0.4c0.6,0.3,1.1,0.6,1.5,1c0.4,0.4,0.8,1,1.1,1.5
			C213.7,324.3,213.8,325,213.8,325.6z M210.8,350.5v69h-3.6v-69H210.8z"/>
		<path fill="#FFFFFF" stroke="#FFFFFF" stroke-width="7" stroke-miterlimit="10" d="M239.9,364c3.1-4.5,6.8-8.1,11-10.7
			c4.3-2.6,9-3.9,14.2-3.9c8.7,0,15.5,2.9,20.2,8.7c4.7,5.8,7.1,14.6,7.1,26.5c0,5-0.6,9.7-1.9,14.1c-1.3,4.3-3.2,8.1-5.7,11.3
			c-2.5,3.2-5.7,5.8-9.4,7.6c-3.8,1.8-8.1,2.8-13.1,2.8c-9.7,0-17.1-3.8-22.2-11.4v35.6h-3.7v-94h1.8c0.9,0,1.4,0.5,1.4,1.4
			L239.9,364z M240,405.2c2.8,4.5,6,7.7,9.5,9.6c3.5,1.8,7.5,2.8,12.1,2.8c4.5,0,8.5-0.8,11.8-2.5c3.4-1.7,6.2-4,8.4-6.9
			c2.2-2.9,3.9-6.4,5-10.4c1.1-4,1.7-8.4,1.7-13.1c0-11-2.1-19.1-6.2-24.4c-4.2-5.3-10.2-7.9-18.1-7.9c-4.9,0-9.3,1.3-13.5,4
			c-4.1,2.7-7.7,6.3-10.8,11.1V405.2z"/>
		<path fill="#FFFFFF" stroke="#FFFFFF" stroke-width="7" stroke-miterlimit="10" d="M316.4,369c1-3.1,2.2-5.9,3.6-8.3
			c1.4-2.4,3-4.5,4.9-6.2c1.8-1.7,3.9-3,6.3-3.8c2.3-0.9,5-1.3,7.9-1.3c1.4,0,2.7,0.1,4.2,0.3c1.4,0.2,2.7,0.6,3.8,1.3l-0.4,2.2
			c-0.2,0.5-0.5,0.8-1,0.8c-0.5,0-1.3-0.2-2.3-0.5c-1-0.3-2.6-0.5-4.7-0.5c-2.9,0-5.5,0.5-7.7,1.4c-2.3,0.9-4.3,2.3-6,4
			c-1.8,1.8-3.3,4-4.7,6.7c-1.4,2.7-2.6,5.8-3.7,9.3v45.3h-3.7v-69h1.7c0.9,0,1.4,0.5,1.5,1.5L316.4,369z"/>
		<path fill="#FFFFFF" stroke="#FFFFFF" stroke-width="7" stroke-miterlimit="10" d="M383.4,349.4c4.9,0,9.3,0.9,13.1,2.6
			c3.8,1.7,7,4.1,9.6,7.2c2.6,3.1,4.6,6.8,6,11.2s2,9.3,2,14.6c0,5.4-0.7,10.2-2,14.6c-1.4,4.4-3.3,8.1-6,11.2s-5.8,5.4-9.6,7.1
			c-3.8,1.7-8.2,2.5-13.1,2.5s-9.3-0.8-13.1-2.5c-3.8-1.7-7-4-9.6-7.1c-2.6-3.1-4.6-6.8-6-11.2c-1.4-4.4-2-9.2-2-14.6
			c0-5.4,0.7-10.2,2-14.6c1.4-4.4,3.3-8.1,6-11.2c2.6-3.1,5.8-5.5,9.6-7.2C374.2,350.3,378.5,349.4,383.4,349.4z M383.4,417.5
			c4.5,0,8.4-0.8,11.8-2.3c3.4-1.5,6.2-3.7,8.4-6.6c2.3-2.8,4-6.3,5.1-10.2c1.1-4,1.7-8.4,1.7-13.3c0-4.9-0.6-9.4-1.7-13.4
			c-1.1-4-2.8-7.5-5.1-10.3c-2.3-2.9-5.1-5.1-8.4-6.7c-3.4-1.6-7.3-2.3-11.8-2.3c-4.5,0-8.4,0.8-11.8,2.3c-3.4,1.6-6.2,3.8-8.4,6.7
			s-4,6.3-5.1,10.3c-1.1,4-1.7,8.5-1.7,13.4c0,4.9,0.6,9.3,1.7,13.3c1.1,4,2.8,7.4,5.1,10.2c2.3,2.8,5.1,5,8.4,6.6
			C375,416.7,379,417.5,383.4,417.5z"/>
	</g>
	<g>
		<polyline fill="none" stroke="#FFFFFF" stroke-width="12" stroke-miterlimit="10" points="194.1,69.1 87.9,175.3 194.1,281.6 		
			"/>
		<circle fill="#FFFFFF" stroke="#FFFFFF" stroke-width="5" stroke-miterlimit="10" cx="194.1" cy="69.1" r="18.8"/>
		<circle fill="#FFFFFF" stroke="#FFFFFF" stroke-width="5" stroke-miterlimit="10" cx="194.1" cy="281.6" r="18.8"/>
		<circle fill="#FFFFFF" stroke="#FFFFFF" stroke-width="5" stroke-miterlimit="10" cx="87.9" cy="175.3" r="18.8"/>
		<polyline fill="none" stroke="#FFFFFF" stroke-width="12" stroke-miterlimit="10" points="305.9,281.6 412.1,175.3 305.9,69.1 		
			"/>
		<circle fill="#FFFFFF" stroke="#FFFFFF" stroke-width="5" stroke-miterlimit="10" cx="305.9" cy="281.6" r="18.8"/>
		<circle fill="#FFFFFF" stroke="#FFFFFF" stroke-width="5" stroke-miterlimit="10" cx="305.9" cy="69.1" r="18.8"/>
		<circle fill="#FFFFFF" stroke="#FFFFFF" stroke-width="5" stroke-miterlimit="10" cx="412.1" cy="175.3" r="18.8"/>
		<g>
			<polygon fill="#FFFFFF" points="312.6,71.1 241.1,288.3 299.2,67.1 			"/>
		</g>
	</g>
</g>
<g id="Capa_4" display="none">
	<rect x="69.5" y="300.3" display="inline" fill="none" width="361" height="149.3"/>
	<text transform="matrix(1 0 0 1 69.5002 419.5526)" display="inline"><tspan x="0" y="0" fill="#FFFFFF" stroke="#FFFFFF" stroke-width="5" stroke-miterlimit="10" font-family="'Lato-Thin'" font-size="140">csip</tspan><tspan x="231" y="0" fill="#FFFFFF" stroke="#FFFFFF" stroke-width="5" stroke-miterlimit="10" font-family="'Lato-Thin'" font-size="140" letter-spacing="-4">r</tspan><tspan x="275.2" y="0" fill="#FFFFFF" stroke="#FFFFFF" stroke-width="5" stroke-miterlimit="10" font-family="'Lato-Thin'" font-size="140">o</tspan></text>
	<g display="inline">
		<polyline fill="none" stroke="#FFFFFF" stroke-width="12" stroke-miterlimit="10" points="194.1,69.1 87.9,175.3 194.1,281.6 		
			"/>
		<circle fill="#FFFFFF" stroke="#FFFFFF" stroke-width="5" stroke-miterlimit="10" cx="194.1" cy="69.1" r="18.8"/>
		<circle fill="#FFFFFF" stroke="#FFFFFF" stroke-width="5" stroke-miterlimit="10" cx="194.1" cy="281.6" r="18.8"/>
		<circle fill="#FFFFFF" stroke="#FFFFFF" stroke-width="5" stroke-miterlimit="10" cx="87.9" cy="175.3" r="18.8"/>
		<polyline fill="none" stroke="#FFFFFF" stroke-width="12" stroke-miterlimit="10" points="305.9,281.6 412.1,175.3 305.9,69.1 		
			"/>
		<circle fill="#FFFFFF" stroke="#FFFFFF" stroke-width="5" stroke-miterlimit="10" cx="305.9" cy="281.6" r="18.8"/>
		<circle fill="#FFFFFF" stroke="#FFFFFF" stroke-width="5" stroke-miterlimit="10" cx="305.9" cy="69.1" r="18.8"/>
		<circle fill="#FFFFFF" stroke="#FFFFFF" stroke-width="5" stroke-miterlimit="10" cx="412.1" cy="175.3" r="18.8"/>
		<g>
			<polygon fill="#FFFFFF" points="312.6,71.1 241.1,288.3 299.2,67.1 			"/>
		</g>
	</g>
</g>
</svg>
