<?xml version="1.0" encoding="utf-8"?>
<!-- Generator: Adobe Illustrator 18.0.0, SVG Export Plug-In . SVG Version: 6.00 Build 0)  -->
<!DOCTYPE svg PUBLIC "-//W3C//DTD SVG 1.1//EN" "http://www.w3.org/Graphics/SVG/1.1/DTD/svg11.dtd">
<svg version="1.1" id="Capa_1" xmlns="http://www.w3.org/2000/svg" xmlns:xlink="http://www.w3.org/1999/xlink" x="0px" y="0px"
	 width="660px" height="160px" viewBox="0 0 660 160" enable-background="new 0 0 660 160" xml:space="preserve">
<polyline fill="none" stroke="#FFFFFF" stroke-width="8" stroke-miterlimit="10" points="86.2,17.6 22.4,81.3 86.2,145.1 "/>
<circle fill="#FFFFFF" stroke="#FFFFFF" stroke-width="3" stroke-miterlimit="10" cx="86.2" cy="17.6" r="11.3"/>
<circle fill="#FFFFFF" stroke="#FFFFFF" stroke-width="3" stroke-miterlimit="10" cx="86.2" cy="145.1" r="11.3"/>
<circle fill="#FFFFFF" stroke="#FFFFFF" stroke-width="3" stroke-miterlimit="10" cx="22.4" cy="81.3" r="11.3"/>
<polyline fill="none" stroke="#FFFFFF" stroke-width="8" stroke-miterlimit="10" points="573.8,145.1 637.6,81.3 573.8,17.6 "/>
<circle fill="#FFFFFF" stroke="#FFFFFF" stroke-width="3" stroke-miterlimit="10" cx="573.8" cy="145.1" r="11.3"/>
<circle fill="#FFFFFF" stroke="#FFFFFF" stroke-width="3" stroke-miterlimit="10" cx="573.8" cy="17.6" r="11.3"/>
<circle fill="#FFFFFF" stroke="#FFFFFF" stroke-width="3" stroke-miterlimit="10" cx="637.6" cy="81.3" r="11.3"/>
<g>
	<polygon fill="#FFFFFF" points="578.6,19 535,149.1 569,16.2 	"/>
</g>
<g>
	<path fill="#FFFFFF" stroke="#FFFFFF" stroke-width="5" stroke-miterlimit="10" d="M142.6,53.7c-0.1,0.1-0.3,0.3-0.4,0.4
		c-0.2,0.1-0.4,0.2-0.6,0.2c-0.4,0-1-0.3-1.9-1c-0.9-0.7-2-1.5-3.5-2.3c-1.5-0.8-3.4-1.6-5.7-2.3c-2.3-0.7-5.1-1-8.3-1
		c-4.6,0-8.7,0.8-12.3,2.4c-3.6,1.6-6.6,4-9.1,7s-4.4,6.7-5.7,11c-1.3,4.3-1.9,9.2-1.9,14.6c0,5.5,0.7,10.5,2,14.8
		c1.3,4.3,3.2,8,5.6,10.9c2.4,3,5.3,5.2,8.8,6.8c3.4,1.6,7.2,2.3,11.4,2.3c3.8,0,7-0.4,9.6-1.3c2.6-0.9,4.7-1.8,6.4-2.9
		c1.7-1.1,3-2,3.9-2.9c0.9-0.9,1.5-1.3,2-1.3c0.4,0,0.7,0.2,1,0.5l0.9,1.1c-0.9,1.3-2.1,2.5-3.7,3.7c-1.6,1.2-3.4,2.3-5.5,3.2
		c-2.1,0.9-4.4,1.7-6.9,2.3c-2.5,0.6-5.2,0.9-8.1,0.9c-4.8,0-9.1-0.9-12.9-2.6c-3.9-1.7-7.1-4.2-9.9-7.4c-2.7-3.2-4.8-7.2-6.3-11.9
		c-1.5-4.7-2.3-10-2.3-16c0-5.7,0.7-10.9,2.2-15.6c1.5-4.7,3.6-8.7,6.4-12c2.8-3.3,6.2-5.9,10.3-7.8c4.1-1.8,8.7-2.8,13.9-2.8
		c4.6,0,8.7,0.7,12.3,2.2c3.6,1.5,6.7,3.4,9.3,5.8L142.6,53.7z"/>
	<path fill="#FFFFFF" stroke="#FFFFFF" stroke-width="5" stroke-miterlimit="10" d="M203.4,53.1c-0.3,0.5-0.6,0.7-1.1,0.7
		c-0.5,0-1.1-0.3-1.9-1c-0.8-0.7-2-1.4-3.4-2.2c-1.5-0.8-3.3-1.5-5.4-2.2c-2.2-0.7-4.9-1-8.1-1c-3,0-5.6,0.4-8.1,1.3
		c-2.4,0.9-4.5,2-6.3,3.5c-1.8,1.5-3.1,3.2-4.1,5.1c-1,2-1.4,4-1.4,6.1c0,2.5,0.6,4.6,1.8,6.3c1.2,1.7,2.8,3.1,4.8,4.3
		c2,1.2,4.3,2.2,6.8,3s5.1,1.6,7.8,2.5c2.6,0.8,5.3,1.7,7.8,2.7c2.5,1,4.8,2.1,6.8,3.5c2,1.4,3.6,3.1,4.8,5.2
		c1.2,2.1,1.8,4.6,1.8,7.6c0,3.1-0.6,6-1.6,8.7c-1.1,2.7-2.7,5.1-4.8,7.1c-2.1,2-4.7,3.6-7.8,4.8c-3.1,1.2-6.6,1.7-10.5,1.7
		c-2.7,0-5.1-0.2-7.2-0.6c-2.2-0.4-4.2-1-6-1.8c-1.9-0.8-3.6-1.7-5.2-2.8c-1.6-1.1-3.1-2.3-4.6-3.7l1-1.3c0.2-0.3,0.4-0.4,0.6-0.6
		c0.2-0.1,0.5-0.2,0.9-0.2c0.5,0,1.2,0.4,2.1,1.2c0.9,0.8,2.2,1.7,3.8,2.7c1.6,1,3.6,1.9,6,2.7c2.4,0.8,5.3,1.2,8.9,1.2
		c3.4,0,6.5-0.5,9.1-1.5c2.6-1,4.8-2.3,6.6-4c1.8-1.7,3.1-3.7,4-6c0.9-2.3,1.3-4.7,1.3-7.2c0-2.7-0.6-5-1.8-6.8
		c-1.2-1.8-2.8-3.3-4.8-4.5c-2-1.2-4.3-2.3-6.8-3.1c-2.5-0.8-5.2-1.7-7.8-2.5c-2.7-0.8-5.3-1.7-7.8-2.6c-2.6-0.9-4.8-2.1-6.8-3.5
		c-2-1.4-3.6-3.1-4.8-5.1c-1.2-2-1.8-4.5-1.8-7.5c0-2.5,0.6-4.9,1.7-7.2s2.7-4.4,4.8-6.2c2-1.8,4.5-3.2,7.4-4.2
		c2.9-1,6.1-1.6,9.6-1.6c4.3,0,8.1,0.6,11.4,1.8c3.3,1.2,6.4,3.1,9.4,5.7L203.4,53.1z"/>
	<path fill="#FFFFFF" stroke="#FFFFFF" stroke-width="5" stroke-miterlimit="10" d="M235.2,18.9c0,0.7-0.1,1.4-0.5,2
		c-0.3,0.6-0.7,1.1-1.2,1.6c-0.5,0.5-1,0.9-1.6,1.1c-0.6,0.3-1.3,0.4-1.9,0.4c-1.4,0-2.6-0.5-3.6-1.5c-1-1-1.5-2.2-1.5-3.6
		c0-1.4,0.5-2.6,1.5-3.6c1-1,2.2-1.5,3.6-1.5c0.6,0,1.3,0.1,1.9,0.4c0.6,0.3,1.2,0.7,1.6,1.1c0.5,0.5,0.9,1,1.2,1.6
		C235.1,17.5,235.2,18.2,235.2,18.9z M232,45.6v74h-3.9v-74H232z"/>
	<path fill="#FFFFFF" stroke="#FFFFFF" stroke-width="5" stroke-miterlimit="10" d="M278.2,120.7c-4.6,0-8.2-1.3-10.8-3.8
		c-2.6-2.5-3.9-6.6-3.9-12.2V51.4H252c-1,0-1.4-0.4-1.4-1.1v-1.4l13-0.5l1.1-28.5c0-0.3,0.2-0.6,0.4-0.9c0.2-0.3,0.5-0.4,0.8-0.4
		h1.7v29.8h24.5v3h-24.5v53.2c0,2.3,0.3,4.3,0.9,5.9c0.6,1.6,1.4,3,2.4,4c1,1.1,2.2,1.8,3.6,2.3c1.4,0.5,2.9,0.7,4.5,0.7
		c2,0,3.7-0.3,5.1-0.9c1.5-0.6,2.7-1.2,3.8-2c1-0.7,1.9-1.3,2.5-2c0.6-0.6,1.1-0.9,1.4-0.9c0.3,0,0.5,0.1,0.8,0.4l1,1.4
		c-0.9,1-1.8,2-3,2.8c-1.1,0.9-2.4,1.6-3.7,2.2c-1.3,0.6-2.8,1.1-4.2,1.5C281.2,120.5,279.7,120.7,278.2,120.7z"/>
	<path fill="#FFFFFF" stroke="#FFFFFF" stroke-width="5" stroke-miterlimit="10" d="M307.2,56.1c3.7-3.8,7.6-6.7,11.6-8.7
		c4-2,8.7-3,13.9-3c3.8,0,7.2,0.6,10,1.8c2.8,1.2,5.2,3,7.1,5.3c1.9,2.3,3.3,5.1,4.2,8.4c0.9,3.3,1.3,7,1.3,11.1v48.6H354
		c-1,0-1.6-0.5-1.7-1.6l-0.8-11c-2.1,2.1-4.1,4-6.1,5.7c-2.1,1.7-4.2,3.1-6.5,4.3c-2.3,1.2-4.8,2.1-7.4,2.7c-2.7,0.6-5.6,1-8.8,1
		c-2.4,0-4.7-0.4-7-1c-2.3-0.7-4.4-1.8-6.2-3.3c-1.9-1.5-3.3-3.4-4.5-5.8c-1.1-2.4-1.7-5.2-1.7-8.6c0-3.3,0.9-6.2,2.8-8.9
		c1.9-2.6,4.8-4.9,8.7-6.9c3.9-1.9,9-3.5,15-4.6c6.1-1.1,13.2-1.8,21.6-2v-8.8c0-7.4-1.6-13.2-4.8-17.3c-3.2-4.1-7.9-6.2-14.3-6.2
		c-3.8,0-7,0.5-9.7,1.6c-2.7,1.1-5,2.3-6.8,3.6c-1.8,1.3-3.2,2.5-4.3,3.6c-1.1,1.1-1.9,1.6-2.4,1.6c-0.5,0-1-0.3-1.3-0.8L307.2,56.1
		z M351.5,82.5c-15.1,0.5-26.3,2.4-33.5,5.6c-7.2,3.3-10.8,7.8-10.8,13.7c0,2.8,0.5,5.1,1.4,7.1c0.9,2,2.1,3.7,3.7,5
		c1.5,1.3,3.3,2.3,5.2,2.9c2,0.6,3.9,0.9,6,0.9c3.2,0,6.1-0.4,8.8-1.1c2.6-0.7,5.1-1.7,7.3-3c2.3-1.2,4.4-2.7,6.3-4.4
		c1.9-1.7,3.8-3.5,5.6-5.4V82.5z"/>
	<path fill="#FFFFFF" stroke="#FFFFFF" stroke-width="5" stroke-miterlimit="10" d="M385.8,11.1v108.5h-3.9V11.1H385.8z"/>
	<path fill="#FFFFFF" stroke="#FFFFFF" stroke-width="5" stroke-miterlimit="10" d="M417,11.1v67.3h3.5c0.5,0,1.1-0.1,1.7-0.2
		c0.6-0.1,1.3-0.6,2-1.3l32.9-29.8c0.5-0.5,0.9-0.9,1.4-1.1c0.5-0.2,1.1-0.4,1.8-0.4h3.3l-35.5,32c-0.4,0.4-0.8,0.7-1.2,1
		c-0.4,0.3-0.8,0.5-1.2,0.8c0.7,0.3,1.3,0.6,1.9,1c0.5,0.4,1.1,0.9,1.6,1.4l37.2,37.7h-3.4c-0.5,0-1-0.1-1.4-0.2
		c-0.4-0.2-0.8-0.5-1.2-1l-34.7-35c-0.9-0.8-1.6-1.4-2.3-1.7c-0.7-0.3-1.8-0.5-3.3-0.5H417v38.4h-4V11.1H417z"/>
	<path fill="#FFFFFF" stroke="#FFFFFF" stroke-width="5" stroke-miterlimit="10" d="M521.2,53.1c-0.3,0.5-0.6,0.7-1.1,0.7
		c-0.5,0-1.1-0.3-1.9-1c-0.8-0.7-2-1.4-3.4-2.2c-1.5-0.8-3.3-1.5-5.4-2.2s-4.9-1-8.1-1c-3,0-5.6,0.4-8.1,1.3c-2.4,0.9-4.5,2-6.3,3.5
		c-1.8,1.5-3.1,3.2-4,5.1c-1,2-1.4,4-1.4,6.1c0,2.5,0.6,4.6,1.8,6.3c1.2,1.7,2.8,3.1,4.8,4.3c2,1.2,4.3,2.2,6.8,3s5.1,1.6,7.8,2.5
		c2.6,0.8,5.3,1.7,7.8,2.7c2.6,1,4.8,2.1,6.8,3.5c2,1.4,3.6,3.1,4.8,5.2c1.2,2.1,1.8,4.6,1.8,7.6c0,3.1-0.6,6-1.6,8.7
		c-1.1,2.7-2.7,5.1-4.8,7.1c-2.1,2-4.7,3.6-7.8,4.8c-3.1,1.2-6.6,1.7-10.5,1.7c-2.7,0-5.1-0.2-7.2-0.6c-2.2-0.4-4.2-1-6-1.8
		c-1.9-0.8-3.6-1.7-5.2-2.8c-1.6-1.1-3.2-2.3-4.7-3.7l1-1.3c0.2-0.3,0.4-0.4,0.6-0.6c0.2-0.1,0.5-0.2,0.9-0.2c0.5,0,1.2,0.4,2.1,1.2
		c0.9,0.8,2.2,1.7,3.8,2.7c1.6,1,3.6,1.9,6,2.7c2.4,0.8,5.3,1.2,8.8,1.2c3.5,0,6.5-0.5,9.1-1.5c2.6-1,4.8-2.3,6.6-4
		c1.8-1.7,3.1-3.7,4-6c0.9-2.3,1.3-4.7,1.3-7.2c0-2.7-0.6-5-1.8-6.8c-1.2-1.8-2.8-3.3-4.8-4.5c-2-1.2-4.3-2.3-6.8-3.1
		c-2.5-0.8-5.2-1.7-7.8-2.5c-2.7-0.8-5.3-1.7-7.8-2.6c-2.5-0.9-4.8-2.1-6.8-3.5c-2-1.4-3.6-3.1-4.8-5.1c-1.2-2-1.8-4.5-1.8-7.5
		c0-2.5,0.6-4.9,1.7-7.2s2.7-4.4,4.8-6.2c2-1.8,4.5-3.2,7.4-4.2s6.1-1.6,9.6-1.6c4.3,0,8.1,0.6,11.4,1.8c3.3,1.2,6.4,3.1,9.4,5.7
		L521.2,53.1z"/>
</g>
</svg>
